<svg width="20" height="20" viewBox="0 0 20 20" fill="none" xmlns="http://www.w3.org/2000/svg">
  <path d="M3 9.5C3 9.5 3.5 9.3 4 9.5C4.3 9.6 4.5 9.8 4.5 9.8L5.5 8.5C5.5 8.5 5 8 4 8C2.5 8 2 9 2 9.5C2 10.5 3 11 4 11H5C5.5 11 6 11.5 6 12C6 12.5 5.5 13 5 13H3.5L3 14H5C6.5 14 7.5 13 7.5 12C7.5 11 6.5 10 5.5 10H4C3.5 10 3 9.5 3 9.5Z" fill="#00ADD8"/>
  <path d="M11 8C9.5 8 8.5 9 8.5 10.5C8.5 12 9.5 13 11 13C12.5 13 13.5 12 13.5 10.5C13.5 9 12.5 8 11 8ZM11 11.5C10.5 11.5 10 11 10 10.5C10 10 10.5 9.5 11 9.5C11.5 9.5 12 10 12 10.5C12 11 11.5 11.5 11 11.5Z" fill="#00ADD8"/>
  <path d="M14 10.5C14 9 15 8 16.5 8C17.5 8 18 8.5 18 8.5L17 9.8C17 9.8 16.7 9.5 16.3 9.5C15.8 9.5 15.5 10 15.5 10.5C15.5 11 15.8 11.5 16.3 11.5C16.7 11.5 17 11.2 17 11.2L18 12.5C18 12.5 17.5 13 16.5 13C15 13 14 12 14 10.5Z" fill="#00ADD8"/>
</svg>
