<svg width="20" height="20" viewBox="0 0 20 20" fill="none" xmlns="http://www.w3.org/2000/svg">
  <path d="M7.5 13.5C7.5 13.5 6.5 14 8 14C9.8 14 10.5 13.8 12 13.5C12 13.5 12.5 13.8 13 14C10 15.2 6 14.8 7.5 13.5Z" fill="#5382A1"/>
  <path d="M7 11.5C7 11.5 6 12 7.5 12C9.5 12.2 11 12 13 11.5C13 11.5 13.3 11.8 13.5 12C9.8 13 5.5 12.5 7 11.5Z" fill="#5382A1"/>
  <path d="M10 7.5C10.8 8.5 9.8 9.5 9.8 9.5C9.8 9.5 11.8 8.5 10.8 7C9.9 5.8 9.2 5 12.5 3C12.5 3 7.5 4.3 10 7.5Z" fill="#E76F00"/>
  <path d="M13.5 15C13.5 15 14 15.5 12.5 15.8C9.5 16.5 5 16.3 5 15.5C5 15.5 5.5 15 6.5 15C7.5 15 8 15 8 15C8 15 7 14.5 5.5 15C2.5 15.5 8 16.8 13.5 15Z" fill="#5382A1"/>
  <path d="M15 9.5C15 9.5 14 8.5 12 9C12 9 12.2 9.2 12.5 9.5C13 9.8 14 10 14.5 10.5C15.5 11.5 13 13 13 13C13 13 16 11.8 15 9.5Z" fill="#E76F00"/>
</svg>
