<svg width="20" height="20" viewBox="0 0 20 20" fill="none" xmlns="http://www.w3.org/2000/svg">
  <rect x="2" y="2" width="16" height="16" rx="2" fill="#F7DF1E"/>
  <path d="M11.5 13.5C11.5 14.88 10.38 15.5 9.25 15.5C8.12 15.5 7.25 14.75 7 14L8.25 13.25C8.38 13.62 8.62 13.88 9.12 13.88C9.62 13.88 9.88 13.62 9.88 13V9H11.5V13.5Z" fill="#000000"/>
  <path d="M15 13.75C15 15.12 13.88 15.75 12.5 15.75C11.12 15.75 10.25 15 10 14.25L11.25 13.5C11.5 14 11.75 14.25 12.38 14.25C12.88 14.25 13.25 14 13.25 13.5C13.25 12.88 12.88 12.62 12.25 12.25L11.75 12C10.75 11.5 10.12 10.88 10.12 9.75C10.12 8.5 11.12 7.5 12.5 7.5C13.5 7.5 14.25 7.88 14.75 8.75L13.5 9.5C13.25 9 13 8.75 12.5 8.75C12 8.75 11.75 9.12 11.75 9.5C11.75 10 12 10.25 12.5 10.5L13 10.75C14.25 11.38 15 12 15 13.25V13.75Z" fill="#000000"/>
</svg>
