<svg width="20" height="20" viewBox="0 0 20 20" fill="none" xmlns="http://www.w3.org/2000/svg">
  <ellipse cx="10" cy="10" rx="8" ry="4.5" fill="#8993BE"/>
  <path d="M5 8.5H6.5C7.5 8.5 8 9 8 10C8 11 7.5 11.5 6.5 11.5H6V13H5V8.5ZM6 10.5H6.5C7 10.5 7 10 7 10C7 9.5 7 9.5 6.5 9.5H6V10.5Z" fill="white"/>
  <path d="M9 8.5H10.5V9.5H11.5V8.5H13V13H11.5V10.5H10.5V13H9V8.5Z" fill="white"/>
  <path d="M14 8.5H15.5C16.5 8.5 17 9 17 10C17 11 16.5 11.5 15.5 11.5H15V13H14V8.5ZM15 10.5H15.5C16 10.5 16 10 16 10C16 9.5 16 9.5 15.5 9.5H15V10.5Z" fill="white"/>
</svg>
