<svg width="20" height="20" viewBox="0 0 20 20" fill="none" xmlns="http://www.w3.org/2000/svg">
  <path d="M9.98 2C7.24 2 7.5 3.16 7.5 3.16V5.5H10V6H6.08C6.08 6 4 5.74 4 9.98C4 14.22 5.82 14 5.82 14H7V12.18C7 12.18 6.92 10.36 8.76 10.36H12.24C12.24 10.36 14 10.4 14 8.6V4.16C14 4.16 14.26 2 9.98 2ZM8.74 3.5C9.16 3.5 9.5 3.84 9.5 4.26C9.5 4.68 9.16 5.02 8.74 5.02C8.32 5.02 7.98 4.68 7.98 4.26C7.98 3.84 8.32 3.5 8.74 3.5Z" fill="#3776AB"/>
  <path d="M10.02 18C12.76 18 12.5 16.84 12.5 16.84V14.5H10V14H13.92C13.92 14 16 14.26 16 10.02C16 5.78 14.18 6 14.18 6H13V7.82C13 7.82 13.08 9.64 11.24 9.64H7.76C7.76 9.64 6 9.6 6 11.4V15.84C6 15.84 5.74 18 10.02 18ZM11.26 16.5C10.84 16.5 10.5 16.16 10.5 15.74C10.5 15.32 10.84 14.98 11.26 14.98C11.68 14.98 12.02 15.32 12.02 15.74C12.02 16.16 11.68 16.5 11.26 16.5Z" fill="#FFC331"/>
</svg>
