<svg width="20" height="20" viewBox="0 0 20 20" fill="none" xmlns="http://www.w3.org/2000/svg">
  <rect x="2" y="2" width="16" height="16" rx="2" fill="#3178C6"/>
  <path d="M8.5 7.5H6V8.5H7.25V14H8.25V8.5H9.5V7.5H8.5Z" fill="white"/>
  <path d="M10.5 11.5C10.5 10.67 11.17 10 12 10H13C13.83 10 14.5 10.67 14.5 11.5V12.5C14.5 13.33 13.83 14 13 14H12.75V13H13C13.28 13 13.5 12.78 13.5 12.5V11.5C13.5 11.22 13.28 11 13 11H12C11.72 11 11.5 11.22 11.5 11.5V12.5C11.5 13.33 12.17 14 13 14H13.5V15H13C11.62 15 10.5 13.88 10.5 12.5V11.5Z" fill="white"/>
</svg>
